<?xml version="1.0" standalone="no"?>
<!DOCTYPE svg PUBLIC "-//W3C//DTD SVG 20010904//EN"
 "http://www.w3.org/TR/2001/REC-SVG-20010904/DTD/svg10.dtd">
<svg version="1.0" xmlns="http://www.w3.org/2000/svg"
 width="312.000000pt" height="312.000000pt" viewBox="0 0 312.000000 312.000000"
 preserveAspectRatio="xMidYMid meet">
<metadata>
Created by potrace 1.14, written by Peter Selinger 2001-2017
</metadata>
<g transform="translate(0.000000,312.000000) scale(0.100000,-0.100000)"
fill="#000000" stroke="none">
<path d="M1218 2846 c-1 -2 -39 -6 -83 -9 -360 -26 -716 -289 -913 -674 -83
-162 -139 -350 -156 -521 -7 -71 -8 -246 -2 -277 3 -11 5 -35 5 -54 2 -59 9
-30 15 61 22 299 143 635 324 898 207 299 497 507 773 553 43 8 67 15 57 19
-9 4 -18 5 -20 4z"/>
<path d="M1183 2770 c-359 -93 -674 -394 -856 -820 -49 -115 -89 -253 -102
-355 l-6 -40 16 40 c9 22 23 60 31 85 27 79 131 282 194 379 98 151 242 316
373 430 90 77 318 211 360 211 7 0 17 4 23 9 30 29 253 54 349 38 33 -5 29 -2
-20 15 -86 29 -264 33 -362 8z"/>
<path d="M1330 2679 c-41 -11 -84 -23 -95 -28 -11 -5 -42 -19 -70 -31 -205
-87 -437 -297 -597 -541 -85 -130 -187 -332 -158 -314 5 3 10 11 10 16 0 6 25
47 55 92 294 441 741 756 1080 760 121 1 180 -10 255 -50 40 -22 42 -22 20 -3
-126 105 -320 144 -500 99z"/>
<path d="M1511 2569 c-220 -27 -466 -166 -688 -388 -80 -80 -222 -251 -209
-251 2 0 35 32 73 71 132 137 332 284 500 368 176 88 303 122 453 123 131 0
215 -29 296 -104 52 -48 57 -42 12 16 -105 134 -246 187 -437 165z"/>
<path d="M1530 2423 c-130 -22 -327 -106 -464 -197 -74 -50 -256 -196 -243
-196 3 0 43 25 89 56 149 100 391 209 511 229 18 3 39 8 47 10 67 19 207 22
290 6 113 -23 207 -89 256 -180 24 -46 24 -46 18 -11 -25 137 -145 252 -293
280 -53 10 -162 11 -211 3z"/>
<path d="M1120 1748 c-25 -28 -25 -48 1 -82 30 -38 85 -31 109 14 11 21 -2 69
-23 82 -23 15 -66 8 -87 -14z"/>
<path d="M1890 1670 c-5 -3 -12 -25 -16 -48 -7 -42 -7 -42 -51 -42 -47 0 -49
-2 -57 -62 l-6 -38 46 0 45 0 -6 -37 c-4 -21 -11 -60 -16 -86 -30 -155 16
-232 138 -229 29 0 65 7 80 14 25 12 28 18 28 71 1 48 -2 57 -15 52 -37 -15
-71 -17 -86 -4 -16 13 -14 67 4 174 l7 40 53 3 c49 3 52 5 52 30 0 15 3 37 6
50 6 21 3 22 -45 22 l-51 0 7 45 c3 25 2 45 -3 46 -36 4 -107 3 -114 -1z"/>
<path d="M483 1574 c-17 -7 -34 -18 -38 -24 -10 -17 -25 -11 -25 10 0 18 -7
20 -65 20 -39 0 -65 -4 -65 -11 0 -5 -11 -84 -25 -174 -14 -91 -28 -187 -31
-214 l-6 -49 63 1 63 2 7 35 c4 19 10 60 14 90 3 30 8 62 10 70 2 8 6 33 10
55 8 59 61 105 119 105 40 0 50 -35 33 -115 -4 -16 -9 -52 -13 -80 -3 -27 -7
-57 -9 -65 -1 -8 -6 -33 -9 -56 l-7 -40 66 -1 c59 -1 66 1 69 21 3 11 12 73
21 136 22 150 20 146 63 175 68 47 116 26 107 -46 -3 -19 -7 -56 -11 -84 -3
-27 -12 -83 -19 -122 -6 -40 -12 -74 -11 -74 1 -1 29 -3 64 -4 69 -3 68 -4 76
60 3 22 10 72 16 110 30 175 19 239 -44 272 -42 22 -118 11 -178 -27 l-49 -30
-28 32 c-25 28 -36 33 -82 34 -30 1 -68 -5 -86 -12z"/>
<path d="M1540 1584 c-8 -3 -32 -15 -52 -25 -38 -18 -38 -18 -38 1 0 18 -7 20
-65 20 -55 0 -65 -3 -66 -17 0 -10 -2 -29 -4 -43 -3 -14 -7 -43 -10 -65 -3
-22 -15 -98 -26 -169 -10 -70 -19 -134 -19 -141 0 -13 116 -19 124 -6 4 7 13
57 21 127 3 22 7 50 10 64 2 14 7 41 10 60 9 60 94 118 134 93 22 -14 20 -109
-3 -228 -2 -11 -7 -43 -11 -71 l-7 -52 66 1 c39 0 66 5 67 11 0 6 2 20 4 31 2
11 7 43 11 70 3 28 7 52 9 55 5 9 19 143 18 183 0 57 -45 99 -110 103 -26 2
-55 1 -63 -2z"/>
<path d="M1085 1533 c-3 -27 -9 -64 -11 -83 -3 -19 -7 -46 -9 -59 -2 -13 -7
-45 -11 -70 -4 -25 -8 -53 -9 -61 -2 -9 -6 -40 -10 -71 l-7 -55 60 -2 c50 -1
62 2 66 16 5 16 28 168 41 262 3 25 8 52 10 60 2 8 6 36 10 63 l6 47 -65 0
-64 0 -7 -47z"/>
<path d="M3049 1493 c-70 -116 -218 -288 -354 -413 -327 -299 -749 -522 -1155
-611 -182 -39 -266 -48 -455 -44 -179 3 -304 22 -416 64 -71 27 -75 26 -14 -6
90 -47 278 -107 375 -120 19 -2 59 -8 89 -12 59 -9 324 -7 386 4 124 20 168
28 240 46 298 74 617 241 840 439 203 181 357 385 459 613 39 84 40 98 5 40z"/>
<path d="M2714 1302 c-165 -161 -521 -382 -794 -495 -169 -70 -398 -143 -510
-162 -19 -3 -53 -10 -75 -15 -38 -8 -78 -14 -185 -26 -126 -14 -369 -5 -470
18 -25 5 -55 12 -68 14 -79 15 -228 82 -312 141 -21 14 -11 2 23 -30 203 -188
541 -278 912 -243 44 5 87 9 95 11 8 2 35 6 60 10 151 22 380 96 557 180 266
126 490 287 693 500 94 98 147 167 74 97z"/>
<path d="M2345 1173 c-62 -38 -279 -141 -387 -183 -197 -77 -466 -150 -643
-175 -22 -4 -47 -8 -55 -10 -67 -18 -402 -26 -520 -12 -186 21 -341 70 -458
145 -64 40 -172 147 -173 170 0 10 -3 12 -5 7 -9 -22 61 -131 125 -195 102
-103 239 -174 416 -213 197 -44 475 -41 691 8 34 8 73 16 86 19 64 11 242 68
368 118 159 63 467 235 572 320 41 33 35 34 -17 1z"/>
</g>
</svg>
